<?xml version="1.0" encoding="UTF-8" standalone="no"?>
<!-- Created with Inkscape (http://www.inkscape.org/) -->

<svg
   version="1.1"
   id="svg2"
   width="816"
   height="1056"
   viewBox="0 0 816 1056"
   sodipodi:docname="blue_1160ad.ai"
   xmlns:inkscape="http://www.inkscape.org/namespaces/inkscape"
   xmlns:sodipodi="http://sodipodi.sourceforge.net/DTD/sodipodi-0.dtd"
   xmlns="http://www.w3.org/2000/svg"
   xmlns:svg="http://www.w3.org/2000/svg">
  <defs
     id="defs6">
    <clipPath
       clipPathUnits="userSpaceOnUse"
       id="clipPath16">
      <path
         d="M 0,0 H 612 V 792 H 0 Z"
         id="path14" />
    </clipPath>
  </defs>
  <sodipodi:namedview
     id="namedview4"
     pagecolor="#ffffff"
     bordercolor="#000000"
     borderopacity="0.25"
     inkscape:showpageshadow="2"
     inkscape:pageopacity="0.0"
     inkscape:pagecheckerboard="0"
     inkscape:deskcolor="#d1d1d1" />
  <g
     id="g8"
     inkscape:groupmode="layer"
     inkscape:label="blue_1160ad"
     transform="matrix(1.3333333,0,0,-1.3333333,0,1056)">
    <g
       id="g10">
      <g
         id="g12"
         clip-path="url(#clipPath16)">
        <g
           id="g18"
           transform="translate(305.6738,603.6562)">
          <path
             d="m 0,0 23.271,-13.018 c 4.352,-2.686 4.449,-5.453 -1.045,-5.285 l -42.745,1.372 c -7.283,0.234 -4.73,2.514 -0.672,4.831 z m 45.012,-29.315 -84.468,2.637 c -5.803,0.182 -6.659,0.13 -11.716,-2.69 -8.432,-4.7 -15.689,-8.919 -24.184,-13.812 -2.203,-1.268 -5.635,-2.506 -4.344,-5.69 1.78,-4.393 7.355,-6.17 11.413,-7.762 l 155.013,-60.837 c 4.641,-1.823 8.258,-0.147 9.848,4.627 l 15.861,47.606 -57.401,33.306 c -2.323,1.347 -7.337,2.532 -10.022,2.615 m 76.375,-41.112 56.592,-32.834 0.013,-41.992 c 0,-5.995 -3.13,-6.87 -8.219,-4.869 l -58.289,22.935 c -5.229,2.053 -7.161,5.441 -5.361,10.854 z m 56.625,-121.057 0.016,-44.953 -52.795,-106.8 -57.327,-33.501 -37.427,32.898 60.689,182.528 c 2.178,6.551 6.219,8.757 12.786,6.204 l 67.724,-26.321 c 5.315,-2.182 6.332,-4.761 6.334,-10.055 m 0.027,-76.238 0.017,-44.648 -28.187,-16.472 c -2.756,-1.609 -4.33,-0.359 -2.916,2.584 l 28.568,59.461 c 2.11,4.286 2.478,4.35 2.518,-0.925 M 7.879,-411.815 23.15,-365.888 c 1.317,3.96 2.649,8.262 7.567,3.508 l 24.561,-21.737 z m -34.216,18.987 14.998,60.891 c 0.611,2.485 1.796,5.19 4.536,2.761 l 21.893,-19.375 c 1.665,-1.474 1.861,-3.495 1.181,-5.536 l -19.881,-59.675 -19.971,11.461 c -2.9,1.85 -3.521,6.364 -2.756,9.473 m -65.236,33.723 5.084,100.452 43.351,-38.367 c 1.77,-1.566 1.828,-3.735 1.292,-5.888 l -14.76,-59.297 c -1.275,-5.124 -1.84,-10.139 -7.291,-12.685 -4.013,-1.874 -6.188,-0.714 -9.558,1.221 l -15.844,9.097 c -1.997,1.264 -2.477,1.446 -2.274,5.467 m -88.65,46.734 0.094,136.589 72.541,-64.198 c 6.16,-5.453 11.402,-13.441 10.962,-22.053 l -4.89,-95.526 z m 0.111,162.03 0.03,42.9 c 0.003,4.585 -0.792,3.743 3.085,5.966 l 40.622,23.289 c 7.441,4.266 9.928,5.22 19.103,5.597 7.933,0.326 10.186,-0.498 17.128,-3.197 l 10.624,-4.129 c 1.943,-0.898 2.178,-0.73 2.012,-3.978 l -7.304,-142.693 c -0.23,-4.475 -3.409,-4.124 -6.077,-1.776 l -73.68,64.765 c -6.216,5.328 -5.55,4.677 -5.543,13.256 m 144.105,-129.111 37.93,152.378 c 1.725,6.926 -5.914,13.92 -11.784,16.2 l -56.156,21.825 c -7.386,2.87 -11.817,1.395 -12.284,-7.835 l -6.816,-134.662 c -0.22,-4.364 2.24,-12.65 5.542,-15.553 l 37.282,-32.771 c 2.18,-1.916 5.285,-3.609 6.286,0.418 M 36.452,-137.899 -3.791,-301.29 c -2.395,-9.722 -1.279,-10.946 2.678,-14.778 l 18.005,-15.828 c 4.695,-3.956 6.019,-2.776 7.954,3.544 l 57.782,173.438 c 1.593,4.782 2.702,7.043 -3.884,9.603 l -29.153,11.331 c -4.737,1.842 -11.606,2.305 -13.139,-3.919"
             style="fill:#1160ad;fill-opacity:1;fill-rule:evenodd;stroke:none"
             id="path20" />
        </g>
      </g>
    </g>
  </g>
</svg>
